<?xml version="1.0" encoding="utf-8"?>
<!-- Generator: Adobe Illustrator 16.0.3, SVG Export Plug-In . SVG Version: 6.00 Build 0)  -->
<!DOCTYPE svg PUBLIC "-//W3C//DTD SVG 1.1//EN" "http://www.w3.org/Graphics/SVG/1.1/DTD/svg11.dtd">
<svg version="1.1" id="Layer_1" xmlns="http://www.w3.org/2000/svg" xmlns:xlink="http://www.w3.org/1999/xlink" x="0px" y="0px"
	 width="1146.114px" height="1108.227px" viewBox="0 0 1146.114 1108.227" enable-background="new 0 0 1146.114 1108.227"
	 xml:space="preserve">
<g>
	<rect fill="#9BD6EC" width="1146.114" height="1108.227"/>
	<polygon fill="#9BD6EC" points="573.058,716.787 573.058,400.976 262.782,665.435 	"/>
	<polygon fill="#9BD6EC" points="262.782,665.435 0,319.736 0,621.942 	"/>
	<polygon fill="#A8DEEF" points="0,319.736 345.034,124.908 262.782,665.435 	"/>
	<polygon fill="#91CCDA" points="0,0 345.034,124.908 0,319.736 	"/>
	<polygon fill="#9BD6EC" points="345.034,124.908 573.058,400.976 262.782,665.435 	"/>
	<polygon fill="#9BD6EC" points="0,0 630.503,0 345.034,124.908 	"/>
	<polygon fill="#91CCDA" points="573.058,716.787 932.331,353.314 573.058,400.976 	"/>
	<polygon fill="#9BD6EC" points="1146.114,644.576 932.331,353.314 573.058,716.787 	"/>
	<polygon fill="#9BD6EC" points="573.058,400.976 630.503,0 932.331,353.314 	"/>
	<polygon fill="#91CCDA" points="345.034,124.908 630.503,0 573.058,400.976 	"/>
	<polygon fill="#91CCDA" points="1146.114,644.576 1146.114,0 932.331,353.314 	"/>
	<polygon fill="#A8DEEF" points="630.503,0 1146.114,0 932.331,353.314 	"/>
	<polygon fill="#91CCDA" points="573.058,716.787 0,621.942 0,832.082 	"/>
	<polygon fill="#A8DEEF" points="0,1108.227 0,832.082 607.832,1108.227 	"/>
	<polygon fill="#9BD6EC" points="607.832,1108.227 573.058,716.787 0,832.082 	"/>
	<polygon fill="#91CCDA" points="607.832,1108.227 1146.114,644.576 1146.114,1108.227 	"/>
	<polygon fill="#A8DEEF" points="573.058,716.787 1146.114,644.576 607.832,1108.227 	"/>
</g>
</svg>
