<?xml version="1.0" encoding="utf-8"?>
<!-- Generator: Adobe Illustrator 16.0.3, SVG Export Plug-In . SVG Version: 6.00 Build 0)  -->
<!DOCTYPE svg PUBLIC "-//W3C//DTD SVG 1.1//EN" "http://www.w3.org/Graphics/SVG/1.1/DTD/svg11.dtd">
<svg version="1.1" id="Layer_1" xmlns="http://www.w3.org/2000/svg" xmlns:xlink="http://www.w3.org/1999/xlink" x="0px" y="0px"
	 width="587.667px" height="236.384px" viewBox="0 0 587.667 236.384" enable-background="new 0 0 587.667 236.384"
	 xml:space="preserve">
<rect x="0" y="0.076" fill="#A8DEEF" width="587.667" height="236.384"/>
<polygon fill="#91CCDA" points="0,0.228 176.916,64.274 0,164.171 "/>
<polygon fill="#9BD6EC" points="0,0.228 323.289,0.228 176.916,64.274 "/>
<polygon fill="#9BD6EC" points="293.833,205.827 323.289,0.228 478.05,181.389 "/>
<polygon fill="#91CCDA" points="176.916,64.274 323.289,0.228 293.833,205.827 "/>
<polygon fill="#A8DEEF" points="323.289,0.228 587.667,0.228 478.05,181.389 "/>
<rect x="0" y="-0.076" fill="none" width="587.667" height="236.384"/>
<polygon fill="#9BD6EC" points="293.833,236.308 293.833,205.827 258.072,236.308 "/>
<polygon fill="#9BD6EC" points="0,164.171 0,236.308 54.834,236.308 "/>
<polygon fill="#A8DEEF" points="150.738,236.308 176.916,64.274 0,164.171 54.834,236.308 "/>
<polygon fill="#9BD6EC" points="258.072,236.308 293.833,205.827 176.916,64.274 150.738,236.308 "/>
<polygon fill="#91CCDA" points="423.765,236.308 478.05,181.389 293.833,205.827 293.833,236.308 "/>
<polygon fill="#9BD6EC" points="518.36,236.308 478.05,181.389 423.765,236.308 "/>
<polygon fill="#91CCDA" points="478.05,181.389 518.36,236.308 587.667,236.308 587.667,0.228 "/>
</svg>
